<?xml version="1.0" encoding="UTF-8"?>
<svg data-name="Layer 1" version="1.1" viewBox="0 0 844.68 595.26" xmlns="http://www.w3.org/2000/svg">
<circle cx="431.39" cy="548" r="46" fill="#e0cffc"/>
<path transform="translate(-177.66 -152.37)" d="m883.86 743.78c25.734-7.7287 53.094-15.788 73.503-34.161 18.238-16.418 30.55-41.489 22.995-66.112-7.54-24.572-30.124-40.956-53.442-49.105-13.225-4.6219-27.061-7.1861-40.891-9.2004-15.035-2.1897-30.136-3.9837-45.23-5.7101q-91.677-10.486-184.04-12.811c-30.385-0.76525-60.764-0.74682-91.152-0.3057-27.139 0.394-55.722 0.38417-80.899-11.151-19.578-8.9698-37.348-25.289-42.803-46.734-6.2973-24.755 5.318-49.964 21.98-67.892 8.7826-9.4501 19.047-17.404 29.636-24.717 11.487-7.9342 23.375-15.306 35.521-22.188a494.63 494.63 0 0 1 74.767-34.468c12.746-4.6344 25.68-8.6328 38.728-12.321 11.017-3.1147 22.068-6.2338 32.716-10.477 20.583-8.2037 40.161-22.1 45.395-44.881 4.9602-21.591-3.403-45.031-18.065-61.071-16.963-18.557-42.539-26.692-67.06-28.008-27.528-1.4776-54.422 5.412-80.297 14.156-27.597 9.326-54.599 20.049-82.778 27.603a556.96 556.96 0 0 1-85.196 15.837c-14.082 1.4995-28.59 3.1927-42.756 2.0448-11.872-0.96211-23.684-4.4538-32.434-12.88-7.5025-7.2248-11.972-17.154-10.435-27.632 0.27909-1.9032 3.1702-1.0941 2.8928 0.79752-1.8704 12.755 6.7999 24.509 17.484 30.529 12.348 6.9583 27.374 6.9678 41.122 6.172a537.83 537.83 0 0 0 88.515-12.796c28.593-6.5306 56.164-15.866 83.704-25.839 26.156-9.4715 52.897-18.716 80.84-20.767 24.246-1.7801 49.752 1.7522 70.874 14.423 18.564 11.136 32.215 29.707 36.565 51.018 4.2504 20.825-1.6363 41.785-17.4 56.317-16.321 15.046-38.701 21.479-59.557 27.404-26.452 7.5144-52.337 16.298-77.392 27.703a485.82 485.82 0 0 0-72.8 40.928c-22.246 15.202-44.201 34.331-51.237 61.451-3.2774 12.633-2.6723 26.032 2.8116 37.965 4.876 10.61 12.907 19.535 22.262 26.419 22.321 16.424 50.453 19.797 77.414 20.132 30.281 0.37678 60.564-0.64518 90.855-0.148q92.599 1.5198 184.82 11.273 23.108 2.4459 46.158 5.4071c13.822 1.776 27.69 3.5406 41.278 6.6946 24.162 5.6082 47.674 16.392 62.692 36.878a61.319 61.319 0 0 1 11.947 30.446c1.0513 11.524-1.7698 23.069-6.9802 33.321-11.532 22.69-33.134 37.123-56.073 46.605-12.287 5.0786-25.032 8.926-37.752 12.746-1.853 0.55651-2.6449-2.338-0.79752-2.8928z" fill="#f2f2f2"/>
<circle cx="125.89" cy="69.5" r="24" fill="#f2f2f2"/>
<circle cx="433.39" cy="24" r="24" fill="#f2f2f2"/>
<circle cx="251.39" cy="301" r="24" fill="#f2f2f2"/>
<circle cx="411.39" cy="390" r="24" fill="#f2f2f2"/>
<circle cx="583.39" cy="440" r="24" fill="#f2f2f2"/>
<circle cx="784.39" cy="429" r="24" fill="#f2f2f2"/>
<path transform="translate(-177.66 -152.37)" d="m604.13 220.37c-71.892 0.50782-130.76 58.93-131.78 130.82-0.00946 0.66369-0.01381 5.3305-0.01324 11.434a33.748 33.748 0 0 0 33.744 33.746h7e-5a33.769 33.769 0 0 0 33.761-33.798c-0.00343-4.1521-0.00551-7.0258-0.00551-7.2023a64 64 0 1 1 98.52 53.879l0.01171 0.01422s-48.028 30.92-62.671 73.335l0.01245 3e-3a94.004 94.004 0 0 0-3.8735 26.768c0 3.7254 0.21916 36.321 0.64261 62.778a34.786 34.786 0 0 0 34.79 34.222h7e-5a34.796 34.796 0 0 0 34.794-35.011c-0.14706-24.229-0.22661-52.442-0.22661-54.489 0-26.045 25.125-51.995 45.764-68.917 23.766-19.487 40.868-46.043 47.737-75.999a86.762 86.762 0 0 0 2.4993-18.834 132.75 132.75 0 0 0-133.71-132.75z" fill="#e0cffc"/>
<circle cx="628.45" cy="243" r="30" fill="#2f2e41"/>
<polygon points="573.01 582.13 560.75 582.13 554.92 534.84 573.02 534.84" fill="#a0616a"/>
<path d="m552 578.63h23.644v14.887h-38.531a14.887 14.887 0 0 1 14.887-14.887z" fill="#2f2e41"/>
<polygon points="668.01 582.13 655.75 582.13 649.92 534.84 668.02 534.84" fill="#a0616a"/>
<path d="m647 578.63h23.644v14.887h-38.531a14.887 14.887 0 0 1 14.887-14.887z" fill="#2f2e41"/>
<circle cx="623.89" cy="248.61" r="24.561" fill="#a0616a"/>
<path transform="translate(-177.66 -152.37)" d="m816.19 504.78 10.99-25.25a31.383 31.383 0 0 0-6.9497-35.6 31.873 31.873 0 0 0-3.0703-2.67 30.935 30.935 0 0 0-18.99-6.57 32.179 32.179 0 0 0-13.4 2.98c-0.36035 0.16-0.71 0.33-1.0703 0.5-0.68994 0.33-1.3696 0.69-2.0298 1.06a31.678 31.678 0 0 0-15.7 23.88l-4.8501 40.64c-1.2197 3.19-44.74 118.39-29.52 206.34a4.4669 4.4669 0 0 0 3.8198 3.67l15.43 2.1a4.4966 4.4966 0 0 0 5.0098-3.53l25.89-123.41a3.5032 3.5032 0 0 1 6.7998-0.23l36.58 129.78a4.4713 4.4713 0 0 0 4.3101 3.28 5.1218 5.1218 0 0 0 0.87012-0.08l18.85-3.63a4.471 4.471 0 0 0 3.6304-4.81c-2.77-30.89-17.49-185.62-36.6-208.45z" fill="#2f2e41"/>
<path transform="translate(-177.66 -152.37)" d="m706.1 421.42a10.056 10.056 0 0 0 10.594 11.203l13.729 32.992 10.385-15.394-14.629-28.97a10.11 10.11 0 0 0-20.079 0.16852z" fill="#a0616a"/>
<path transform="translate(-177.66 -152.37)" d="m800.19 538a10.056 10.056 0 0 0 8.4265-12.913l28.885-21.038-17.39-6.5122-24.764 20.977a10.11 10.11 0 0 0 4.8424 19.487z" fill="#a0616a"/>
<path transform="translate(-177.66 -152.37)" d="m753.1 487.61a17.057 17.057 0 0 1-3.2983-0.32519 16.305 16.305 0 0 1-11.948-9.6162l-19.234-23.453a4.5008 4.5008 0 0 1 1.1111-6.6807l13.684-8.4707a4.5001 4.5001 0 0 1 6.2153 1.4902l13.556 22.334 25.961-19.187a9.7215 9.7215 0 0 1 11.31 15.562l-25.912 23.637a16.253 16.253 0 0 1-11.446 4.71z" fill="#2f2e41"/>
<path transform="translate(-177.66 -152.37)" d="m823.25 522.88c-0.03515 0-0.07055 0-0.10571-1e-3a4.5078 4.5078 0 0 1-3.3108-1.5703l-12.166-14.193a4.4998 4.4998 0 0 1 0.92041-6.6729l22.781-15.188-20.638-24.812a9.721 9.721 0 0 1 14.887-12.183l25.084 24.513a16.525 16.525 0 0 1-3.6753 26.94l-20.501 21.754a4.5074 4.5074 0 0 1-3.2749 1.4131z" fill="#2f2e41"/>
<path transform="translate(-177.66 -152.37)" d="m795.31 470.58a4.6321 4.6321 0 0 1-0.584-0.03711 4.4611 4.4611 0 0 1-3.7104-3.0688l-9.1423-28.029a3.0826 3.0826 0 0 1 1.594-3.7246l0.29663-0.14014c0.269-0.12793 0.5354-0.25439 0.80737-0.37549a32.574 32.574 0 0 1 13.603-3.023 31.327 31.327 0 0 1 17.161 5.1567 3.1301 3.1301 0 0 1 0.90136 4.2944l-17.15 26.868a4.4551 4.4551 0 0 1-3.7769 2.0796z" fill="#e6e6e6"/>
<circle cx="652.1" cy="219.79" r="9.8167" fill="#2f2e41"/>
<path transform="translate(-177.66 -152.37)" d="m796.11 361.37a26 26 0 0 0-26 26v11h13.529l6.4707-11 1.9414 11h41.059l-11-11a26 26 0 0 0-26-26z" fill="#2f2e41"/>
<path transform="translate(-177.66 -152.37)" d="m834.81 365.43a15.15 15.15 0 0 1 16.481-10.396c6.256 1.0459 11.202 6.0746 14.149 11.691s4.3081 11.903 6.2894 17.928 4.7912 12.084 9.7931 15.984 12.677 4.9584 17.59 0.94607a20.118 20.118 0 0 1-37.477 7.1812c-2.5921-4.6117-3.2612-10.017-4.0299-15.251s-1.7674-10.65-4.8621-14.94-8.8877-7.0929-13.804-5.1386z" fill="#2f2e41"/>
<polygon points="126.54 582.58 138.8 582.58 144.63 535.3 126.54 535.3" fill="#ffb8b8"/>
<path transform="translate(464.05 1325.4) rotate(180)" d="m301.58 731.45h38.531v14.887h-23.644a14.887 14.887 0 0 1-14.887-14.887 0 0 0 0 1 0-1e-5z" fill="#2f2e41"/>
<polygon points="82.541 582.58 94.8 582.58 100.63 535.3 82.538 535.3" fill="#ffb8b8"/>
<path transform="translate(376.05 1325.4) rotate(180)" d="m257.58 731.45h38.531v14.887h-23.644a14.887 14.887 0 0 1-14.887-14.887 0 0 0 0 1 0-1e-5z" fill="#2f2e41"/>
<path transform="translate(-177.66 -152.37)" d="m270.92 720.41-11.975-0.62988a4.6735 4.6735 0 0 1-4.4185-4.967l14.313-158.47 65.911 17.786 6.3502-1.7324-19.858 140.28a4.6962 4.6962 0 0 1-4.3582 3.9446l-12.909 0.60147a4.6741 4.6741 0 0 1-4.9315-4.7956l2.339-84.196a1.5581 1.5581 0 0 0-3.0832-0.36007l-22.557 88.812a4.6457 4.6457 0 0 1-4.5691 3.7255c-0.08387 0-0.16833-0.00203-0.25328-0.0071z" fill="#2f2e41"/>
<circle cx="128.74" cy="249.76" r="24.561" fill="#ffb8b8"/>
<path transform="translate(-177.66 -152.37)" d="m265.51 474.29 2.7006 58.267 0.97625 21.199a4.6422 4.6422 0 0 0 3.0743 4.1753l63.336 22.943a4.4774 4.4774 0 0 0 1.5995 0.28045 4.6436 4.6436 0 0 0 4.6637-4.7881l-2.5966-104.77a36.93 36.93 0 0 0-30.744-35.677c-0.61263-0.09345-1.2359-0.18695-1.8592-0.27006a36.249 36.249 0 0 0-29.165 9.4412 37.236 37.236 0 0 0-11.986 29.196z" fill="#ccc"/>
<path transform="translate(-177.66 -152.37)" d="m365.85 569.25a10.064 10.064 0 0 1-5.3688-15.227l-21.478-28.56 18.534-1.1471 17.554 27.297a10.111 10.111 0 0 1-9.2418 17.637z" fill="#ffb8b8"/>
<path transform="translate(-177.66 -152.37)" d="m350.75 548.85a4.6444 4.6444 0 0 1-2.5411-2.5185l-32.358-77.094a12.463 12.463 0 1 1 22.984-9.6469l32.358 77.095a4.679 4.679 0 0 1-2.5005 6.1182l-14.365 6.029a4.6416 4.6416 0 0 1-3.5774 0.01724z" fill="#ccc"/>
<path transform="translate(-177.66 -152.37)" d="m298.51 546.13 31.079-59.509a4.8783 4.8783 0 0 1 6.5749-2.0634l45.112 23.56a4.8783 4.8783 0 0 1 2.0634 6.5749l-31.079 59.509a4.8783 4.8783 0 0 1-6.5749 2.0634l-45.111-23.56a4.8783 4.8783 0 0 1-2.0634-6.5749z" fill="#3f3d56"/>
<path transform="translate(-177.66 -152.37)" d="m319.35 518.94a10.064 10.064 0 0 0-15.517-4.4603l-29.778-19.754-0.05061 18.57 28.286 15.912a10.111 10.111 0 0 0 17.06-10.267z" fill="#ffb8b8"/>
<path transform="translate(-177.66 -152.37)" d="m281.7 523.12-24.337-19.278a17.163 17.163 0 0 1-7.8234-27.135l22.097-28.96a10.096 10.096 0 0 1 17.13 10.284l-17.484 28.6 25.694 12.187a4.6736 4.6736 0 0 1 1.9481 6.7196l-10.372 16.414a4.682 4.682 0 0 1-3.1667 2.1111c-0.02565 0.00448-0.05149 0.00846-0.0773 0.0123a4.6956 4.6956 0 0 1-3.6091-0.9558z" fill="#ccc"/>
<path transform="translate(-177.66 -152.37)" d="m287.85 418.57a2.1348 2.1348 0 0 1 1.8564-2.819 4.9305 4.9305 0 0 1 3.4761 1.715 13.833 13.833 0 0 0 3.0712 2.6371c1.1881 0.59889 2.7995 0.51354 3.4768-0.62824 0.63605-1.0722 0.20023-2.508-0.18482-3.7535a36.907 36.907 0 0 1-1.6299-9.77c-0.11092-3.7003 0.41115-7.562 2.4597-10.448 2.6439-3.7248 7.3714-5.1388 11.845-5.0363s8.8755 1.4836 13.307 2.3566c1.5299 0.30139 3.3283 0.4555 4.3515-0.73025 1.088-1.2608 0.68844-3.3014 0.22563-5.0038-1.2009-4.4174-2.475-8.9846-5.2652-12.552a18.898 18.898 0 0 0-12.061-6.7901 28.938 28.938 0 0 0-13.462 1.5284 36.096 36.096 0 0 0-17.683 12.319 29.236 29.236 0 0 0-5.5781 21.6 26.667 26.667 0 0 0 9.8858 16.855z" fill="#2f2e41"/>
</svg>
