<?xml version="1.0" encoding="UTF-8" standalone="no"?>
<svg
   xmlns:dc="http://purl.org/dc/elements/1.1/"
   xmlns:cc="http://creativecommons.org/ns#"
   xmlns:rdf="http://www.w3.org/1999/02/22-rdf-syntax-ns#"
   xmlns:svg="http://www.w3.org/2000/svg"
   xmlns="http://www.w3.org/2000/svg"
   xmlns:sodipodi="http://sodipodi.sourceforge.net/DTD/sodipodi-0.dtd"
   xmlns:inkscape="http://www.inkscape.org/namespaces/inkscape"
   id="aa03ddf9-f8f2-4819-a4ce-be9b0a220741"
   data-name="Layer 1"
   width="1119.60911"
   height="699"
   viewBox="0 0 1119.60911 699"
   version="1.1"
   sodipodi:docname="undraw_server_down_s4lk.svg"
   inkscape:version="0.92.4 (5da689c313, 2019-01-14)">
  <metadata
     id="metadata109">
    <rdf:RDF>
      <cc:Work
         rdf:about="">
        <dc:format>image/svg+xml</dc:format>
        <dc:type
           rdf:resource="http://purl.org/dc/dcmitype/StillImage" />
      </cc:Work>
    </rdf:RDF>
  </metadata>
  <defs
     id="defs107" />
  <sodipodi:namedview
     pagecolor="#ffffff"
     bordercolor="#666666"
     borderopacity="1"
     objecttolerance="10"
     gridtolerance="10"
     guidetolerance="10"
     inkscape:pageopacity="0"
     inkscape:pageshadow="2"
     inkscape:window-width="1600"
     inkscape:window-height="837"
     id="namedview105"
     showgrid="false"
     inkscape:zoom="0.33762518"
     inkscape:cx="559.80457"
     inkscape:cy="349.5"
     inkscape:window-x="-8"
     inkscape:window-y="-8"
     inkscape:window-maximized="1"
     inkscape:current-layer="aa03ddf9-f8f2-4819-a4ce-be9b0a220741" />
  <title
     id="title2">server down</title>
  <circle
     cx="292.60911"
     cy="213"
     r="213"
     fill="#f2f2f2"
     id="circle4" />
  <path
     d="M494,726.5c90,23,263-30,282-90"
     transform="translate(-31.39089 -100.5)"
     fill="none"
     stroke="#2f2e41"
     stroke-miterlimit="10"
     stroke-width="2"
     id="path26" />
  <path
     d="M341,359.5s130-36,138,80-107,149-17,172"
     transform="translate(-31.39089 -100.5)"
     fill="none"
     stroke="#2f2e41"
     stroke-miterlimit="10"
     stroke-width="2"
     id="path28" />
  <path
     d="M215.40233,637.78332s39.0723-10.82,41.47675,24.04449-32.15951,44.78287-5.10946,51.69566"
     transform="translate(-31.39089 -100.5)"
     fill="none"
     stroke="#2f2e41"
     stroke-miterlimit="10"
     stroke-width="2"
     id="path30" />
  <path
     d="M810.09554,663.73988,802.218,714.03505s-38.78182,20.60284-11.51335,21.20881,155.73324,0,155.73324,0,24.84461,0-14.54318-21.81478l-7.87756-52.719Z"
     transform="translate(-31.39089 -100.5)"
     fill="#2f2e41"
     id="path32" />
  <rect
     x="578.43291"
     y="212.68859"
     width="513.25314"
     height="357.51989"
     rx="18.04568"
     fill="#2f2e41"
     id="rect36" />
  <rect
     x="595.70294"
     y="231.77652"
     width="478.71307"
     height="267.83694"
     id="rect38"
     style="fill:#f2f2f2" />
  <circle
     cx="835.05948"
     cy="545.66686"
     r="11.51335"
     fill="#f2f2f2"
     id="circle52" />
  <rect
     x="87.60911"
     y="135"
     width="250"
     height="86"
     fill="#3f3d56"
     id="rect58" />
  <rect
     x="87.60911"
     y="237"
     width="250"
     height="86"
     fill="#3f3d56"
     id="rect60" />
  <rect
     x="87.60911"
     y="339"
     width="250"
     height="86"
     fill="#3f3d56"
     id="rect62" />
  <rect
     x="317.60911"
     y="150"
     width="16"
     height="16"
     fill="#e0cffc"
     id="rect68" />
  <rect
     x="317.60911"
     y="251"
     width="16"
     height="16"
     fill="#e0cffc"
     id="rect74" />
  <rect
     x="317.60911"
     y="352"
     width="16"
     height="16"
     fill="#e0cffc"
     id="rect80" />
  <circle
     cx="316.60911"
     cy="538"
     r="79"
     fill="#2f2e41"
     id="circle82" />
  <rect
     x="280.60911"
     y="600"
     width="24"
     height="43"
     fill="#2f2e41"
     id="rect84" />
  <rect
     x="328.60911"
     y="600"
     width="24"
     height="43"
     fill="#2f2e41"
     id="rect86" />
  <ellipse
     cx="300.60911"
     cy="643.5"
     rx="20"
     ry="7.5"
     fill="#2f2e41"
     id="ellipse88" />
  <ellipse
     cx="348.60911"
     cy="642.5"
     rx="20"
     ry="7.5"
     fill="#2f2e41"
     id="ellipse90" />
  <circle
     cx="318.60911"
     cy="518"
     r="27"
     fill="#fff"
     id="circle92" />
  <circle
     cx="318.60911"
     cy="518"
     r="9"
     fill="#3f3d56"
     id="circle94" />
  <path
     d="M271.36733,565.03228c-6.37889-28.56758,14.01185-57.43392,45.544-64.47477s62.2651,10.41,68.644,38.9776-14.51861,39.10379-46.05075,46.14464S277.74622,593.59986,271.36733,565.03228Z"
     transform="translate(-31.39089 -100.5)"
     fill="#e0cffc"
     id="path96" />
  <ellipse
     cx="417.21511"
     cy="611.34365"
     rx="39.5"
     ry="12.40027"
     transform="translate(-238.28665 112.98044) rotate(-23.17116)"
     fill="#2f2e41"
     id="ellipse98" />
  <ellipse
     cx="269.21511"
     cy="664.34365"
     rx="39.5"
     ry="12.40027"
     transform="translate(-271.07969 59.02084) rotate(-23.17116)"
     fill="#2f2e41"
     id="ellipse100" />
  <path
     d="M394,661.5c0,7.732-19.90861,23-42,23s-43-14.268-43-22,20.90861-6,43-6S394,653.768,394,661.5Z"
     transform="translate(-31.39089 -100.5)"
     fill="#fff"
     id="path102" />
</svg>
