<?xml version="1.0" encoding="UTF-8" standalone="no"?>
<svg
   xmlns:dc="http://purl.org/dc/elements/1.1/"
   xmlns:cc="http://creativecommons.org/ns#"
   xmlns:rdf="http://www.w3.org/1999/02/22-rdf-syntax-ns#"
   xmlns:svg="http://www.w3.org/2000/svg"
   xmlns="http://www.w3.org/2000/svg"
   xmlns:sodipodi="http://sodipodi.sourceforge.net/DTD/sodipodi-0.dtd"
   xmlns:inkscape="http://www.inkscape.org/namespaces/inkscape"
   id="b4f74b74-9f48-4ac7-9642-0389d8d43dd0"
   data-name="Layer 1"
   width="810"
   height="677.07902"
   viewBox="0 0 810 677.07902"
   version="1.1"
   sodipodi:docname="undraw_cookie_love.svg"
   inkscape:version="0.92.4 (5da689c313, 2019-01-14)">
  <metadata
     id="metadata161">
    <rdf:RDF>
      <cc:Work
         rdf:about="">
        <dc:format>image/svg+xml</dc:format>
        <dc:type
           rdf:resource="http://purl.org/dc/dcmitype/StillImage" />
      </cc:Work>
    </rdf:RDF>
  </metadata>
  <defs
     id="defs159" />
  <sodipodi:namedview
     pagecolor="#ffffff"
     bordercolor="#666666"
     borderopacity="1"
     objecttolerance="10"
     gridtolerance="10"
     guidetolerance="10"
     inkscape:pageopacity="0"
     inkscape:pageshadow="2"
     inkscape:window-width="1600"
     inkscape:window-height="837"
     id="namedview157"
     showgrid="false"
     inkscape:zoom="0.34855606"
     inkscape:cx="405"
     inkscape:cy="338.53952"
     inkscape:window-x="-8"
     inkscape:window-y="-8"
     inkscape:window-maximized="1"
     inkscape:current-layer="b4f74b74-9f48-4ac7-9642-0389d8d43dd0" />
  <title
     id="title2">cookie love</title>
  <polygon
     points="653.438 661.145 108 166.079 193.292 0 793 657.079 653.438 661.145"
     fill="#f2f2f2"
     id="polygon4" />
  <circle
     cx="405"
     cy="107.07902"
     r="33"
     fill="#f2f2f2"
     id="circle6" />
  <circle
     cx="550"
     cy="175.07902"
     r="11"
     fill="#3f3d56"
     id="circle8" />
  <circle
     cx="550"
     cy="262.07902"
     r="11"
     fill="#3f3d56"
     id="circle10" />
  <circle
     cx="660"
     cy="284.07902"
     r="11"
     fill="#3f3d56"
     id="circle12" />
  <path
     d="M822.6334,442.74372c-4.36871-7.20568-19.62881-7.01971-19.62881-7.01971-13.89387,20.64326-47.29158-1.28486-47.29158-1.28486-24.80552,11.09762-39.94053-24.26786-39.94053-24.26786-33.37734-4.99093-28.2208-40.04535-28.2208-40.04535-16.60576-3.334-11.94635-33.35708-11.94635-33.35708s9.2142-7.55727,4.67987-13.08577c-2.88274-3.51474-3.06162-13.60194-2.80992-20.488a229.1527,229.1527,0,0,0-66.84591-9.91429c-126.5852,0-229.2028,102.6176-229.2028,229.2028s102.6176,229.2028,229.2028,229.2028,229.2028-102.61761,229.2028-229.2028a228.6756,228.6756,0,0,0-14.56269-80.52963C824.09293,443.2817,823.18084,443.64666,822.6334,442.74372Z"
     transform="translate(-195 -111.46049)"
     fill="#3f3d56"
     id="path20" />
  <path
     d="m 398.9225,353.91025 c 0,0 -26.98156,-16.86464 -52.73671,0 -9.0143,5.90263 -13.52144,14.31387 -15.5722,22.75462 -3.64628,15.00785 0.35249,30.82973 10.10292,42.92696 l 58.26524,72.28891 a 17.319509,17.011402 0 0 0 17.27057,6.18155 q 0.18917,-0.0416 0.38086,-0.0868 a 17.367582,17.058619 0 0 0 10.98019,-8.18872 l 40.52119,-69.89327 a 68.916328,67.690331 0 0 0 8.75378,-42.10413 c -1.90023,-14.37394 -8.92775,-29.52578 -28.90842,-34.72069 0,0 -23.30227,-9.63693 -49.05742,10.84158 z"
     id="path22"
     inkscape:connector-curvature="0"
     style="fill:#e0cffc;stroke-width:0.67655057" />
  <path
     d="M161.83748,65.079h28.21816a33.5923,33.5923,0,0,1,33.5923,33.5923V160.4818a0,0,0,0,1,0,0H128.24518a0,0,0,0,1,0,0V98.67133A33.5923,33.5923,0,0,1,161.83748,65.079Z"
     fill="#2f2e41"
     id="path54" />
  <path
     d="M385.80789,706.62106s-3,19-8,22,26,10,26,10l5-30Z"
     transform="translate(-195 -111.46049)"
     fill="#fbbebe"
     id="path56" />
  <path
     d="M422.80789,489.62106l11,13-5,45-4,89s8,77,0,79-44,1-43-4,2-9,4-16-2-32-2-32l5-28-18-121Z"
     transform="translate(-195 -111.46049)"
     fill="#2f2e41"
     id="path58" />
  <path
     d="M386.80789,725.62106s-11-2-12,0-20,23-23,23-25,20-2,21,61-17,61-17-5.59226-25.44648-5.29613-24.22324S386.80789,730.62106,386.80789,725.62106Z"
     transform="translate(-195 -111.46049)"
     fill="#2f2e41"
     id="path60" />
  <path
     d="M374.80789,679.62106s28,31,29,34,16,0,16,0l6-20-5-7-28-23Z"
     transform="translate(-195 -111.46049)"
     fill="#fbbebe"
     id="path62" />
  <path
     d="M414.80789,702.62106l-14.5,13.64811s18.5,28.35189,18.5,31.35189,1,28,11,24,11-44,11-44-1-41-7-44-19.15048-2.05218-19.15048-2.05218S422.80789,701.62106,414.80789,702.62106Z"
     transform="translate(-195 -111.46049)"
     fill="#2f2e41"
     id="path64" />
  <path
     d="M331.80789,400.62106s-5,16-6,20-7,15-7,32,2,37,0,39-34,114-20,126,60,52,63,57,4,17,10,15,29-22,30-26-13-11-13-11-28-41-35-40-6-5-5-8,3-5,0-5-1-8,0-12,24-58,24-58l61-27s-3-73-25-93l-5-12S347.80789,393.62106,331.80789,400.62106Z"
     transform="translate(-195 -111.46049)"
     fill="#2f2e41"
     id="path66" />
  <path
     d="M356.80789,242.62106s5,35-7,37-22,1-22,2,30,32,30,32l28-2,25-27s-23-4-23-18-1-24-1-24Z"
     transform="translate(-195 -111.46049)"
     fill="#fbbebe"
     id="path68" />
  <circle
     cx="177.30789"
     cy="114.66057"
     r="31"
     fill="#fbbebe"
     id="circle72" />
  <path
     d="M344.80789,276.62106s-39,5-42,18,20,94,23,101,2,12,2,12a39.56624,39.56624,0,0,1,32-7c19,4,46,2,46,2s9-37,11-41,10-26,10-32,12-31,12-31-6-18-28-17c0,0-9.59619-4.29506-12.2981-1.14753s-17.7019,17.14753-36.7019,11.14753S344.80789,276.62106,344.80789,276.62106Z"
     transform="translate(-195 -111.46049)"
     fill="#ff6584"
     id="path74" />
  <path
     d="M313.80789,293.62106h-11l-6,79s22,6,25,2S313.80789,293.62106,313.80789,293.62106Z"
     transform="translate(-195 -111.46049)"
     fill="#ff6584"
     id="path76" />
  <path
     d="M419.80789,293.62106l19,5s14,51,15,52,2,7,2,7,0,1,2,4,5,1,3,5-5,2-3,6,1,15,1,15-5-19-23-14l-12-54Z"
     transform="translate(-195 -111.46049)"
     fill="#ff6584"
     id="path78" />
  <polygon
     points="201.511 107.121 153.343 107.121 142.438 82.057 209.69 82.057 201.511 107.121"
     fill="#2f2e41"
     id="polygon80" />
  <circle
     cx="204"
     cy="234.07902"
     r="18"
     fill="#3f3d56"
     id="circle86" />
  <path
     d="M398.327,337.00779s-3.87549-2.46622-7.57482,0a5.35048,5.35048,0,0,0-2.23671,3.32755,7.39123,7.39123,0,0,0,1.45113,6.27747l8.36891,10.57126a2.48768,2.48768,0,0,0,2.48065.904l.05471-.01269a2.4946,2.4946,0,0,0,1.57713-1.19749l5.82025-10.22092a9.89875,9.89875,0,0,0,1.25734-6.15715,5.53091,5.53091,0,0,0-4.15225-5.07742S402.02633,334.0131,398.327,337.00779Z"
     transform="translate(-195 -111.46049)"
     fill="#e0cffc"
     id="path94" />
  <circle
     cx="188"
     cy="244.07902"
     r="18"
     fill="#3f3d56"
     id="circle98" />
  <path
     d="M382.327,347.00779s-3.87549-2.46622-7.57482,0a5.35048,5.35048,0,0,0-2.23671,3.32755,7.39123,7.39123,0,0,0,1.45113,6.27747l8.36891,10.57126a2.48768,2.48768,0,0,0,2.48065.904l.05471-.01269a2.4946,2.4946,0,0,0,1.57713-1.19749l5.82025-10.22092a9.89875,9.89875,0,0,0,1.25734-6.15715,5.53091,5.53091,0,0,0-4.15225-5.07742S386.02633,344.0131,382.327,347.00779Z"
     transform="translate(-195 -111.46049)"
     fill="#e0cffc"
     id="path106" />
  <path
     d="M369.27414,310.53779c-.43839-.72307-1.96971-.70441-1.96971-.70441-1.39422,2.07151-4.7456-.12893-4.7456-.12893-2.48918,1.11362-4.00795-2.43523-4.00795-2.43523-3.34934-.50083-2.83189-4.01846-2.83189-4.01846-1.66636-.33456-1.19879-3.34731-1.19879-3.34731s.92462-.75836.46961-1.31313a4.03794,4.03794,0,0,1-.282-2.05593,22.985,22.985,0,1,0,14.83083,13.92415C369.4206,310.59178,369.32908,310.6284,369.27414,310.53779Z"
     transform="translate(-195 -111.46049)"
     fill="#3f3d56"
     id="path110" />
  <path
     d="M345.06651,309.114s-3.77207-2.40041-7.37269,0a5.20767,5.20767,0,0,0-2.177,3.23875,7.194,7.194,0,0,0,1.4124,6.11l8.14559,10.28916a2.4213,2.4213,0,0,0,2.41446.87984l.05324-.01235a2.42805,2.42805,0,0,0,1.53505-1.16553l5.66494-9.94818a9.63466,9.63466,0,0,0,1.22379-5.99285,5.38331,5.38331,0,0,0-4.04145-4.94193S348.66712,306.19926,345.06651,309.114Z"
     transform="translate(-195 -111.46049)"
     fill="#e0cffc"
     id="path116" />
  <path
     d="M366.33566,315.96609l-1.28671.80419s-.64336.32168-.64336.48252v1.28671"
     transform="translate(-195 -111.46049)"
     opacity="0.1"
     id="path128" />
  <path
     d="M299.80789,364.62106l-3,8s-2,26,10,25,19-16,19-16-7-19-15-17S299.80789,364.62106,299.80789,364.62106Z"
     transform="translate(-195 -111.46049)"
     fill="#ff6584"
     id="path148" />
  <path
     d="M309.80789,369.62106s-6,18,1,18,20-11,21-20,19-43,6-40-19,28-19,28Z"
     transform="translate(-195 -111.46049)"
     fill="#fbbebe"
     id="path150" />
  <path
     d="M452.80789,370.62106l6.24722,10.44031s2.75278,19.55969-11.24722,19.55969-34-19-34-19-10-4-16-3-39,0-25-17,38,0,38,0l25,12,13-7Z"
     transform="translate(-195 -111.46049)"
     fill="#fbbebe"
     id="path152" />
</svg>
