<?xml version="1.0" encoding="UTF-8" standalone="no"?>
<svg
   xmlns:dc="http://purl.org/dc/elements/1.1/"
   xmlns:cc="http://creativecommons.org/ns#"
   xmlns:rdf="http://www.w3.org/1999/02/22-rdf-syntax-ns#"
   xmlns:svg="http://www.w3.org/2000/svg"
   xmlns="http://www.w3.org/2000/svg"
   xmlns:sodipodi="http://sodipodi.sourceforge.net/DTD/sodipodi-0.dtd"
   xmlns:inkscape="http://www.inkscape.org/namespaces/inkscape"
   id="fd59ce54-f850-4dfc-bc34-dd7d379d600e"
   data-name="Layer 1"
   width="1074.392"
   height="584.231"
   viewBox="0 0 1074.392 584.231"
   version="1.1"
   sodipodi:docname="undraw_page_not_found_su7k.svg"
   inkscape:version="0.92.4 (5da689c313, 2019-01-14)">
  <metadata
     id="metadata119">
    <rdf:RDF>
      <cc:Work
         rdf:about="">
        <dc:format>image/svg+xml</dc:format>
        <dc:type
           rdf:resource="http://purl.org/dc/dcmitype/StillImage" />
      </cc:Work>
    </rdf:RDF>
  </metadata>
  <defs
     id="defs117" />
  <sodipodi:namedview
     pagecolor="#ffffff"
     bordercolor="#666666"
     borderopacity="1"
     objecttolerance="10"
     gridtolerance="10"
     guidetolerance="10"
     inkscape:pageopacity="0"
     inkscape:pageshadow="2"
     inkscape:window-width="1600"
     inkscape:window-height="837"
     id="namedview115"
     showgrid="false"
     inkscape:zoom="0.38812651"
     inkscape:cx="537.19598"
     inkscape:cy="292.11551"
     inkscape:window-x="-8"
     inkscape:window-y="-8"
     inkscape:window-maximized="1"
     inkscape:current-layer="fd59ce54-f850-4dfc-bc34-dd7d379d600e" />
  <title
     id="title2">page not found</title>
  <path
     d="m 583.47969,324.89424 c -85.94407,0 -147.651,55.13938 -147.651,183.79791 0,145.813 61.70691,184.41057 147.651,184.41057 85.94409,0 151.327,-42.27352 151.327,-184.41057 -5e-5,-151.9396 -65.38293,-183.79791 -151.327,-183.79791 z m 0.56495,319.80837 c -59.52686,0 -90.62592,-34.92288 -90.62592,-135.9163 0,-89.11185 32.37209,-136.10461 91.899,-136.10461 59.52691,0 91.899,30.86774 91.899,136.10461 -9e-5,98.44736 -33.64522,135.9163 -93.17208,135.9163 z"
     transform="translate(-63.054,-157.8845)"
     id="path6"
     inkscape:connector-curvature="0"
     style="fill:#e0cffc" />
  <path
     d="M384.36531,591.40121H348.831V486.76183A20.95585,20.95585,0,0,0,327.87517,465.806h-8.32638a20.95585,20.95585,0,0,0-20.95586,20.95585V591.40121H198.36285a11.96327,11.96327,0,0,1-10.57763-17.552l106.0824-200.78034A20.95585,20.95585,0,0,0,284.28724,344.33l-6.26231-2.9572a20.95585,20.95585,0,0,0-27.4293,9.07005L121.21416,592.4754a28.41578,28.41578,0,0,0-3.35584,13.39612v0a28.41583,28.41583,0,0,0,28.41584,28.41583H298.59293v66.16727a25.119,25.119,0,0,0,25.119,25.119h.00005a25.119,25.119,0,0,0,25.119-25.119V634.28739h35.53428a21.44307,21.44307,0,0,0,21.44307-21.44307v0A21.44307,21.44307,0,0,0,384.36531,591.40121Z"
     transform="translate(-63.054 -157.8845)"
     fill="#e0cffc"
     id="path8" />
  <path
     d="M1042.36183,591.40121h-35.53428V486.76183A20.95585,20.95585,0,0,0,985.87169,465.806h-8.32638a20.95585,20.95585,0,0,0-20.95586,20.95585V591.40121H856.35937a11.96326,11.96326,0,0,1-10.57763-17.552L951.86413,373.06891A20.95586,20.95586,0,0,0,942.28376,344.33l-6.26231-2.9572a20.95586,20.95586,0,0,0-27.42931,9.07005L779.21068,592.4754a28.41578,28.41578,0,0,0-3.35584,13.39612v0a28.41583,28.41583,0,0,0,28.41583,28.41583H956.58945v66.16727a25.119,25.119,0,0,0,25.119,25.119h0a25.119,25.119,0,0,0,25.119-25.119V634.28739h35.53428a21.44307,21.44307,0,0,0,21.44307-21.44307v0A21.44307,21.44307,0,0,0,1042.36183,591.40121Z"
     transform="translate(-63.054 -157.8845)"
     fill="#e0cffc"
     id="path10" />
  <ellipse
     cx="502.60736"
     cy="46.88476"
     rx="36.18622"
     ry="46.88476"
     fill="#2f2e41"
     id="ellipse20" />
  <path
     d="M540.09786,318.2059a19.76967,19.76967,0,0,0-1.1987,15.07476,26.33914,26.33914,0,0,0,8.82921,12.49683c10.09467,8.09163,23.98784,9.20512,36.92477,9.09278a284.6495,284.6495,0,0,0,33.90525-2.32384,40.53788,40.53788,0,0,0,11.00143-2.55442c4.22242-1.82679,7.93282-5.17756,9.436-9.5257s.43625-9.67246-3.13383-12.57428c-3.13686-2.54969-7.46265-2.9004-11.49775-3.14289l-23.08764-1.38745c2.281-2.30839,5.31816-3.614,8.09586-5.29216,3.68523-2.22642,6.13358-5.96455,8.81312-9.33471a129.00143,129.00143,0,0,1,13.4386-13.817c.75138,4.31038,3.4782,7.8499,6.68733,10.824s6.90841,5.36845,10.2439,8.20013c8.0786,6.85838,13.89583,16.1669,22.39215,22.50043a43.82885,43.82885,0,0,0,16.04862-8.0122l-3.30209-5.98141a3.94,3.94,0,0,0-1.24459-1.55282c-.93465-.575-2.13975-.27872-3.225-.44144-2.90082-.435-4.16771-3.784-5.306-6.48737-3.12491-7.42173-9.108-13.17993-14.21783-19.40381a98.00854,98.00854,0,0,1-9.99577-14.72284c-1.71652-3.10162-3.288-6.33107-5.61746-9.00321s-5.59358-4.773-9.1385-4.78051c-3.13222-.00662-6.02122,1.58355-8.71422,3.18308a230.47679,230.47679,0,0,0-23.63018,16.09894c-3.94376,3.0617-7.86306,6.29645-12.48933,8.17393-1.94748.79035-4.00044,1.33052-5.86924,2.29223-3.27313,1.6844-5.75721,4.53435-8.43128,7.06415C566.27712,311.89225,553.219,317.73841,540.09786,318.2059Z"
     transform="translate(-63.054 -157.8845)"
     fill="#3f3d56"
     id="path28" />
  <path
     d="M588.3737,253.98251a23.77444,23.77444,0,0,1-1.73379,8.03335,10.04492,10.04492,0,0,1-5.76772,5.57269,12.37513,12.37513,0,0,1-5.62306.18249,10.88232,10.88232,0,0,1-4.58151-1.56071c-2.16484-1.48837-3.24415-4.14413-3.63748-6.74325-.39333-2.596-.21714-5.24857-.46885-7.86342a42.94439,42.94439,0,0,0-1.202-6.25549c-.16993-.68282-.343-1.36248-.51294-2.04216-.16674-.67967-.33037-1.35935-.48141-2.039-.13847-.63878-.26745-1.28068-.37761-1.92574-.09123-.54436-.173-1.09189-.23285-1.64255a18.42329,18.42329,0,0,0-.80867-4.81118,14.60727,14.60727,0,0,0-1.68659-2.854c-.28635-.40906-.56326-.81811-.81815-1.24292a5.88984,5.88984,0,0,1-.97226-3.74763,3.286,3.286,0,0,1,.14788-.601c.02516-.07552.05347-.151.085-.2234A1.80187,1.80187,0,0,0,560.932,223.07a3.43341,3.43341,0,0,0-.14788-1.77783,11.31808,11.31808,0,0,0-.95974-2.28761c-.2643-.47829-1.16108-1.34046-1.16738-1.888-.0126-1.10132,2.13972-1.98867,3.01134-2.42291a16.79623,16.79623,0,0,1,8.59657-1.74323c1.90369.129,3.9679.71428,5.0189,2.30962.944,1.438.81807,3.30081,1.22085,4.97169a1.47068,1.47068,0,0,0,.29892.66393,1.34135,1.34135,0,0,0,.73948.33982,4.54948,4.54948,0,0,0,1.416.05666h.00315a2.93138,2.93138,0,0,0,.37128-.05351,4.957,4.957,0,0,0,2.03271-.8779q.58531-.15576,1.18-.25488a.25112.25112,0,0,0,.04725-.00945c1.57646,4.97482,1.781,10.30836,3.07111,15.37444.63874,2.52044,1.55442,5.00943,1.6834,7.60225.00945.11327.0126.2297.01575.34612.0189.83386-.04717,1.674-.0126,2.50472a6.981,6.981,0,0,0,.12591,1.1139,15.61121,15.61121,0,0,0,.52546,1.74325l.00945.02831c.05977.18251.11643.36817.16363.55381.03457.1353.06607.26747.09127.40277l.00311.00943A14.93754,14.93754,0,0,1,588.3737,253.98251Z"
     transform="translate(-63.054 -157.8845)"
     fill="#fbbebe"
     id="path30" />
  <circle
     cx="503.23669"
     cy="44.99678"
     r="18.56511"
     fill="#fbbebe"
     id="circle32" />
  <path
     d="M684.15711,304.03278a30.445,30.445,0,0,0-5.236-14.10317q.72216,4.29513,1.44748,8.58714a3.214,3.214,0,0,1-3.36688-1.03523,10.33663,10.33663,0,0,1-1.76529-3.27565,67.46571,67.46571,0,0,0-8.2095-14.73567c-11.81876-.98489-23.50223-5.88418-33.89555-11.59532-10.39643-5.708-20.12582-12.5519-30.38382-18.50217a43.57346,43.57346,0,0,0-5.54436-2.832c-3.20954-1.287-6.81242-1.95406-9.85526-3.46759-.2045-.1007-.409-.20767-.61043-.31781a12.57834,12.57834,0,0,1-1.94459-1.30584,10.34363,10.34363,0,0,1-.93139-.8559,20.35115,20.35115,0,0,1-3.55886-5.95341c-1.63308-3.61232-2.21524-7.97041-3.84517-11.58274a11.20292,11.20292,0,0,1,2.50156-1.76525h.00315c.13213-.06924.2643-.13532.39962-.19824a11.9404,11.9404,0,0,1,2.00437-.73317q.58531-.15576,1.18-.25488a.25112.25112,0,0,0,.04725-.00945,11.56564,11.56564,0,0,1,5.49085.43424c2.58652.87477,4.76711,2.62115,6.94148,4.27313a114.02006,114.02006,0,0,1,10.14787,8.04908c1.79357,1.718,3.4298,3.606,5.35868,5.16676a42.14393,42.14393,0,0,0,5.05662,3.35116q15.65613,9.32658,31.31525,18.65005c3.53365,2.1051,7.07046,4.21019,10.52553,6.438,5.24855,3.38578,10.30828,7.05474,15.36493,10.72057q4.46978,3.23787,8.93647,6.47889a9.72771,9.72771,0,0,1,2.533,2.3411,8.4724,8.4724,0,0,1,1.12337,3.433A31.3874,31.3874,0,0,1,684.15711,304.03278Z"
     transform="translate(-63.054 -157.8845)"
     fill="#fbbebe"
     id="path34" />
  <path
     d="M592.97726,267.9441c-1.25235,5.61674-6.92888,9.012-9.89617,13.94586-3.68784,6.12335-2.18378,13.241-.79922,20.25484q-3.79485,3.27095-7.59285,6.54186c-1.39708,1.19886-2.79417,2.404-4.29827,3.46444a57.35064,57.35064,0,0,1-6.85966,3.93956q-3.3606,1.72752-6.72119,3.45814a32.1282,32.1282,0,0,1-6.57961,2.78793c-4.41473,1.13278-9.10318.33982-13.4707-.97232a6.08761,6.08761,0,0,1-1.47264-.601,2.39351,2.39351,0,0,1-.69854-.63248,3.91067,3.91067,0,0,1-.44365-2.53933c.44365-7.35052,2.24036-14.54686,4.03081-21.68971a85.2598,85.2598,0,0,1,3.84832-12.57708,85.0766,85.0766,0,0,1,5.41538-10.151,68.36751,68.36751,0,0,1,7.92948-11.51353,18.47881,18.47881,0,0,0,3.67525-4.73882c1.11706-2.54876.686-5.472.91252-8.24732a17.14844,17.14844,0,0,1,1.63312-6.0069v-.00315a17.09326,17.09326,0,0,1,1.74321-2.88232q.45788,1.06671.91568,2.13027.30209.69855.59783,1.394.38706.89679.7678,1.78728,1.09973,2.55823,2.19637,5.11327a21.58968,21.58968,0,0,0,3.33538,5.944,6.49923,6.49923,0,0,0,11.12337-.85275,21.26125,21.26125,0,0,0,2.27185-6.0132,19.21547,19.21547,0,0,0,.25175-7.83509c-.75835-5.00945-2.88862-10.12585-4.43678-14.77972a14.94511,14.94511,0,0,1-1.07927-4.871,3.35144,3.35144,0,0,1,.05662-.56011c.00945-.04719.0189-.09754.02834-.14473a11.9404,11.9404,0,0,1,2.00437-.73317q.58531-.15576,1.18-.25488,2.04378,11.06355,4.09377,22.12709c.0315.17307.0661.34613.09756.52234.19509,1.05726.39333,2.11454.61358,3.16865.19828.95657.41223,1.91.65137,2.85715l.00945.02831c.08182.321.16678.63877.2549.95658l.00311.00943c.2423.86848.5129,1.73065.81811,2.58024C590.93825,257.47528,594.16355,262.62946,592.97726,267.9441Z"
     transform="translate(-63.054 -157.8845)"
     fill="#e0cffc"
     id="path36" />
  <path
     d="M668.32144,346.87707a6.58269,6.58269,0,0,0,.61,3.14328c1.16192,2.12353,3.94981,2.60625,6.36228,2.80484a188.37688,188.37688,0,0,0,42.2657-1.28774,4.88565,4.88565,0,0,0,2.15136-.66766c1.98985-1.39509.76329-4.7951-1.40951-5.88355s-4.75126-.82614-7.1353-1.29748a22.47912,22.47912,0,0,1-6.67794-2.89617q-7.25234-4.16669-14.293-8.68808c-2.79453-1.79464-6.09272-3.70993-9.23987-2.64587C672.43,332.34264,668.26533,337.68065,668.32144,346.87707Z"
     transform="translate(-63.054 -157.8845)"
     fill="#3f3d56"
     id="path38" />
  <path
     d="M564.43732,240.87367v.00315c-.022.13215-.04406.26116-.07237.39018-.0346.214-.07551.43108-.11642.645-.39018,1.99812-.86847,3.98678-1.41913,5.96287-1.5104,5.45939-3.53366,10.83069-5.54121,16.12332q-8.08055,21.28692-16.16423,42.577c-1.35936,3.57457-2.71554,7.15228-4.26054,10.65448-.516,1.16741-1.04782,2.34424-1.57647,3.53368-1.89427,4.25737-3.713,8.65322-4.31716,13.18436a27.44976,27.44976,0,0,0-.19194,9.04027c.60416,2.97042,2.40718,5.8716,5.22969,6.96977,1.37823.53808,3.35113,1.25865,2.97355,2.69037-.2045.78665-1.09817,1.17055-1.90057,1.3027a7.31234,7.31234,0,0,1-5.966-1.718c-1.50725-1.33732-2.66518-3.41725-4.66959-3.64065-1.38767-.151-2.66518.67966-3.93643,1.26178-5.18564,2.36942-11.22719.71114-16.674-.9723.42794-2.20579,2.64318-3.65953,4.84267-4.10006,2.19949-.44367,4.47449-.129,6.718-.18879a3.50958,3.50958,0,0,0,2.04216-.52549,3.70545,3.70545,0,0,0,1.10132-1.88169,78.96356,78.96356,0,0,0,3.21273-13.14661c.7237-4.66645,1.02581-9.40527,2.05787-14.01507.80241-3.59661,2.0422-7.07991,3.10572-10.61044a224.68238,224.68238,0,0,0,5.0598-22.07674,78.02019,78.02019,0,0,0,1.42543-9.36751c.17935-2.6117.09438-5.236.34609-7.83826a60.8877,60.8877,0,0,1,2.11141-9.99683q1.44427-5.34769,2.88547-10.68911c1.42544-5.2706,2.95465-10.74572,6.567-14.84264a13.96159,13.96159,0,0,1,10.02834-4.78915,9.8819,9.8819,0,0,1,2.13027.22969c.11639.02831.23285.05664.34923.0881a8.63447,8.63447,0,0,1,2.17437.89995c1.11388-.708,1.68025-.45942,2.41974.63246a6.97319,6.97319,0,0,1,.88107,3.79485A52.42378,52.42378,0,0,1,564.43732,240.87367Z"
     transform="translate(-63.054 -157.8845)"
     fill="#fbbebe"
     id="path40" />
  <path
     d="M565.66136,245.0461l-.0472.04719-.25486.25488-2.5299,2.52675-1.23976-5.20767-4.25109-17.854a9.8819,9.8819,0,0,1,2.13027.22969,3.286,3.286,0,0,1,.14788-.601l.20135.68911,1.44118,4.90245,2.72811,9.30773.45,1.53241v.00315Z"
     transform="translate(-63.054 -157.8845)"
     fill="#e0cffc"
     id="path42" />
  <path
     d="M581.71523,188.0873a12.58165,12.58165,0,0,1-3.70049,8.89583,12.31392,12.31392,0,0,1-1.36008,1.17634,12.52812,12.52812,0,0,1-7.53567,2.52415H554.023a12.5902,12.5902,0,0,1,0-25.18037h15.096A12.62919,12.62919,0,0,1,581.71523,188.0873Z"
     transform="translate(-63.054 -157.8845)"
     fill="#2f2e41"
     id="path44" />
</svg>
