<?xml version="1.0" encoding="UTF-8" standalone="no"?>
<svg
   xmlns:dc="http://purl.org/dc/elements/1.1/"
   xmlns:cc="http://creativecommons.org/ns#"
   xmlns:rdf="http://www.w3.org/1999/02/22-rdf-syntax-ns#"
   xmlns:svg="http://www.w3.org/2000/svg"
   xmlns="http://www.w3.org/2000/svg"
   xmlns:sodipodi="http://sodipodi.sourceforge.net/DTD/sodipodi-0.dtd"
   xmlns:inkscape="http://www.inkscape.org/namespaces/inkscape"
   id="5315dcf4-9ab7-45f5-a3d8-2e76525705db"
   data-name="Layer 1"
   width="813.15"
   height="752"
   viewBox="0 0 813.15 752"
   version="1.1"
   sodipodi:docname="undraw_tweetstorm.svg"
   inkscape:version="0.92.4 (5da689c313, 2019-01-14)">
  <metadata
     id="metadata71">
    <rdf:RDF>
      <cc:Work
         rdf:about="">
        <dc:format>image/svg+xml</dc:format>
        <dc:type
           rdf:resource="http://purl.org/dc/dcmitype/StillImage" />
      </cc:Work>
    </rdf:RDF>
  </metadata>
  <defs
     id="defs69" />
  <sodipodi:namedview
     pagecolor="#ffffff"
     bordercolor="#666666"
     borderopacity="1"
     objecttolerance="10"
     gridtolerance="10"
     guidetolerance="10"
     inkscape:pageopacity="0"
     inkscape:pageshadow="2"
     inkscape:window-width="1600"
     inkscape:window-height="837"
     id="namedview67"
     showgrid="false"
     inkscape:zoom="0.31382979"
     inkscape:cx="-393.77671"
     inkscape:cy="376"
     inkscape:window-x="-8"
     inkscape:window-y="-8"
     inkscape:window-maximized="1"
     inkscape:current-layer="5315dcf4-9ab7-45f5-a3d8-2e76525705db" />
  <title
     id="title2">tweetstorm</title>
  <polygon
     points="347.86,352.67 347.86,752 559.73,696.54 559.73,403.7 "
     id="polygon4"
     transform="translate(58)"
     style="fill:#e0e0e0" />
  <polygon
     points="347.86,352.67 347.86,752 559.73,696.54 559.73,403.7 "
     id="polygon6"
     transform="translate(58)"
     style="opacity:0.1" />
  <polygon
     points="347.86,352.67 347.86,752 135.99,697.65 135.99,403.7 "
     id="polygon8"
     transform="translate(58)"
     style="fill:#e0e0e0" />
  <polygon
     points="347.86,350.91 347.86,752 135.99,697.65 135.99,401.93 "
     id="polygon10"
     transform="translate(58)"
     style="opacity:0.17000002" />
  <polygon
     points="457.68,261.71 669.54,316.07 557.96,405.46 346.09,354.44 "
     id="polygon12"
     transform="translate(58)"
     style="fill:#e0e0e0" />
  <polygon
     points="137.76,405.46 349.62,354.44 242.03,263.48 29.05,318.94 "
     id="polygon14"
     transform="translate(58)"
     style="fill:#e0e0e0" />
  <polygon
     points="138.64,405.46 350.51,354.44 240.26,261.71 27.29,317.18 "
     id="polygon16"
     transform="translate(58)"
     style="opacity:0.05" />
  <polygon
     points="135.99,697.65 347.86,752 350.72,460.27 135.99,403.7 "
     id="polygon18"
     transform="translate(58)"
     style="fill:#e0e0e0" />
  <polygon
     points="347.86,752 347.86,460.27 559.73,403.7 559.73,696.54 "
     id="polygon20"
     transform="translate(58)"
     style="fill:#e0e0e0" />
  <polygon
     points="347.86,752 347.86,460.27 559.73,403.7 559.73,696.54 "
     id="polygon22"
     transform="translate(58)"
     style="opacity:0.07000002" />
  <polygon
     points="347.31,508.52 347.31,460.82 135.44,407.58 133.22,556.22 251.91,586.17 "
     id="polygon26"
     transform="translate(58)"
     style="opacity:0.1" />
  <polygon
     points="347.31,508.52 347.31,460.82 559.17,407.58 561.39,556.22 442.7,586.17 "
     id="polygon28"
     transform="translate(58)"
     style="opacity:0.1" />
  <polygon
     points="27.29,493.55 239.15,546.79 347.86,460.27 135.99,403.7 "
     id="polygon32"
     transform="translate(58)"
     style="fill:#e0e0e0" />
  <polygon
     points="669.54,493.55 458.78,546.79 347.86,460.27 559.73,403.7 "
     id="polygon36"
     transform="translate(58)"
     style="fill:#e0e0e0" />
  <polygon
     points="669.54,493.55 458.78,546.79 347.86,460.27 559.73,403.7 "
     id="polygon38"
     transform="translate(58)"
     style="opacity:0.07000002" />
  <path
     d="m 404.97492,247.69865 5.52,-1.1 c 0,0 -4.64,5.19 -5.52,5.52 v 0 a 22.21,22.21 0 0 0 0,3.31 c -10.6,45.5 -49.69,25.4 -49.69,25.4 14.25,0.33 15.46,-5.52 15.46,-5.52 -8.28,-1.21 -9.94,-6.63 -9.94,-6.63 a 3.41,3.41 0 0 0 4.42,-1.1 c -8.94,-2.32 -7.73,-11 -7.73,-11 a 11.48,11.48 0 0 0 5.41,2.1 c -1,-1.21 -9.39,-11.26 -4.31,-16.45 0,0 6.18,11 22.42,12 l 1.1,-0.22 a 8.66,8.66 0 0 1 -0.22,-2.43 11.59,11.59 0 0 1 11.59,-11.59 c 7.73,0 9.39,4.42 9.39,4.42 l 5.52,-3.31 c -0.13,0.02 -0.66,5.5 -3.42,6.6 z"
     id="path48"
     inkscape:connector-curvature="0"
     style="opacity:0.3;fill:#535461" />
  <path
     d="m 549.73406,160.33051 5.48,-1.1 c 0,0 -4.64,5.19 -5.52,5.52 v 0 a 22.21,22.21 0 0 0 0,3.31 c -10.6,45.5 -49.69,25.4 -49.69,25.4 14.25,0.33 15.46,-5.52 15.46,-5.52 -8.28,-1.21 -9.94,-6.63 -9.94,-6.63 a 3.41,3.41 0 0 0 4.42,-1.1 c -8.94,-2.32 -7.73,-11 -7.73,-11 a 11.48,11.48 0 0 0 5.41,2.1 c -1,-1.21 -9.39,-11.26 -4.31,-16.45 0,0 6.18,11 22.42,12 l 1.1,-0.22 a 8.66,8.66 0 0 1 -0.22,-2.43 11.59,11.59 0 0 1 11.6,-11.61 c 7.73,0 9.39,4.42 9.39,4.42 l 5.52,-3.31 c -0.07,0 -0.62,5.52 -3.39,6.62 z"
     id="path54"
     inkscape:connector-curvature="0"
     style="fill:#e0cffc" />
  <path
     d="m 326.37729,152.26643 5.52,-1.1 c 0,0 -4.64,5.19 -5.52,5.52 v 0 a 22.21,22.21 0 0 0 0,3.31 c -10.6,45.5 -49.69,25.4 -49.69,25.4 14.25,0.33 15.46,-5.52 15.46,-5.52 -8.28,-1.21 -9.94,-6.63 -9.94,-6.63 a 3.41,3.41 0 0 0 4.42,-1.1 c -8.94,-2.32 -7.73,-11 -7.73,-11 a 11.48,11.48 0 0 0 5.41,2.1 c -1,-1.21 -9.39,-11.26 -4.31,-16.45 0,0 6.18,11 22.42,12 l 1.1,-0.22 a 8.66,8.66 0 0 1 -0.22,-2.43 11.59,11.59 0 0 1 11.59,-11.59 c 7.73,0 9.39,4.42 9.39,4.42 l 5.52,-3.31 c -0.11,-0.03 -0.66,5.52 -3.42,6.6 z"
     id="path56"
     inkscape:connector-curvature="0"
     style="fill:#e0cffc" />
  <path
     d="m 467.99729,60.010678 5.52,-1.1 c 0,0 -4.64,5.19 -5.52,5.52 v 0 a 22.21,22.21 0 0 0 0,3.31 c -10.6,45.500002 -49.69,25.399996 -49.69,25.399996 14.25,0.33 15.46,-5.52 15.46,-5.52 -8.28,-1.21 -9.94,-6.63 -9.94,-6.63 a 3.41,3.41 0 0 0 4.42,-1.1 c -8.94,-2.32 -7.73,-10.999996 -7.73,-10.999996 a 11.48,11.48 0 0 0 5.41,2.1 c -1,-1.21 -9.39,-11.26 -4.31,-16.45 0,0 6.18,11 22.42,12 l 1.1,-0.22 a 8.66,8.66 0 0 1 -0.22,-2.43 11.59,11.59 0 0 1 11.59,-11.59 c 7.73,0 9.39,4.42 9.39,4.42 l 5.52,-3.31 c -0.11,-0.03 -0.61,5.5 -3.42,6.6 z"
     id="path58"
     inkscape:connector-curvature="0"
     style="opacity:0.3;fill:#e0cffc" />
</svg>
